<svg width="114" height="26" viewBox="0 0 114 26" fill="none" xmlns="http://www.w3.org/2000/svg">
<path d="M95.8436 25.5516C95.1491 26.003 94.4457 26.0287 93.7332 25.6287C93.0221 25.2301 92.6665 24.6141 92.6665 23.7808V2.21829C92.6665 1.38495 93.0221 0.768286 93.7332 0.368286C94.4457 -0.030325 95.1491 -0.00393591 95.8436 0.447453L112.823 11.2287C113.448 11.6454 113.76 12.2356 113.76 12.9995C113.76 13.7634 113.448 14.3537 112.823 14.7704L95.8436 25.5516Z" fill="#FFCBCC"/>
<path d="M10.8 17H13.536L9.392 11.864C11.184 11.768 12.48 10.632 12.48 8.84C12.48 6.968 11.072 5.8 9.152 5.8H1.744V17H3.952V11.864H6.672L10.8 17ZM9.152 7.848C9.776 7.848 10.256 8.184 10.256 8.84C10.256 9.496 9.776 9.816 9.152 9.816H3.952V7.848H9.152ZM24.2018 11.8C24.2018 13.944 22.8578 15.144 20.7138 15.144C18.5698 15.144 17.2258 13.944 17.2258 11.8V5.8H15.0178V11.8C15.0178 15.16 17.1778 17.176 20.7138 17.176C24.2498 17.176 26.4098 15.16 26.4098 11.8V5.8H24.2018V11.8ZM40.1161 7.848V5.8H32.9001H27.8921V7.848H32.9001V17H35.1081V7.848H40.1161ZM50.7955 11.8C50.7955 13.944 49.4515 15.144 47.3075 15.144C45.1635 15.144 43.8195 13.944 43.8195 11.8V5.8H41.6115V11.8C41.6115 15.16 43.7715 17.176 47.3075 17.176C50.8435 17.176 53.0035 15.16 53.0035 11.8V5.8H50.7955V11.8ZM63.8939 17C66.0539 17 67.6699 15.544 67.6699 13.496C67.6699 12.216 67.0299 11.16 66.0379 10.552C66.5019 10.072 66.7899 9.432 66.7899 8.648C66.7899 6.888 65.3819 5.8 63.4619 5.8H56.1659V17H63.8939ZM63.8939 11.864C64.7899 11.864 65.3979 12.456 65.3979 13.416C65.3979 14.376 64.7899 14.952 63.8939 14.952H58.3739V11.864H63.8939ZM63.4619 7.848C64.0859 7.848 64.5659 8.184 64.5659 8.84C64.5659 9.496 64.0859 9.816 63.4619 9.816H58.3739V7.848H63.4619ZM80.1153 17V14.952H72.4833V11.72H79.3953V9.672H72.4833V7.848H80.0673V5.8H70.2753V17H80.1153Z" fill="#FFCBCC"/>
</svg>
