<svg width="42" height="42" viewBox="0 0 42 42" fill="none" xmlns="http://www.w3.org/2000/svg">
<path d="M21 0.166992C9.49999 0.166992 0.166656 9.50033 0.166656 21.0003C0.166656 32.5003 9.49999 41.8337 21 41.8337C32.5 41.8337 41.8333 32.5003 41.8333 21.0003C41.8333 9.50033 32.5 0.166992 21 0.166992ZM30.6667 14.3337C30.3542 17.6253 29 25.6253 28.3125 29.3128C28.0208 30.8753 27.4375 31.3962 26.8958 31.4587C25.6875 31.5628 24.7708 30.667 23.6042 29.8962C21.7708 28.6878 20.7292 27.9378 18.9583 26.7712C16.8958 25.417 18.2292 24.667 19.4167 23.4587C19.7292 23.1462 25.0625 18.292 25.1667 17.8545C25.1811 17.7882 25.1792 17.7194 25.161 17.6541C25.1429 17.5887 25.1091 17.5288 25.0625 17.4795C24.9375 17.3753 24.7708 17.417 24.625 17.4378C24.4375 17.4795 21.5208 19.417 15.8333 23.2503C15 23.8128 14.25 24.1045 13.5833 24.0837C12.8333 24.0628 11.4167 23.667 10.3542 23.3128C9.04166 22.8962 8.02082 22.667 8.10416 21.9378C8.14582 21.5628 8.66666 21.1878 9.64582 20.792C15.7292 18.1462 19.7708 16.3962 21.7917 15.5628C27.5833 13.1462 28.7708 12.7295 29.5625 12.7295C29.7292 12.7295 30.125 12.7712 30.375 12.9795C30.5833 13.1462 30.6458 13.3753 30.6667 13.542C30.6458 13.667 30.6875 14.042 30.6667 14.3337Z" fill="#FFCBCC"/>
</svg>
