<svg width="50" height="50" viewBox="0 0 50 50" fill="none" xmlns="http://www.w3.org/2000/svg">
<path fill-rule="evenodd" clip-rule="evenodd" d="M30.5 4H12C10.8954 4 10 4.89543 10 6V43C10 44.1046 10.8954 45 12 45H39C40.1046 45 41 44.1046 41 43V12.9995L30.5 4Z" fill="#1929BC"/>
<path d="M30.2991 14.3376C29.6448 14.4194 29.0919 13.8567 29.1851 13.2039L30.5001 3.99835L41 13L30.2991 14.3376Z" fill="#160E74"/>
<path d="M20.61 24.52C20.61 22.26 18.93 21 16.5 21H13.09V28H16.5C18.93 28 20.61 26.78 20.61 24.52ZM19.2 24.52C19.2 25.95 18.15 26.68 16.65 26.72H14.47V22.28H16.5C18.08 22.28 19.2 23.05 19.2 24.52ZM21.3939 24.5C21.3939 26.79 23.0639 28.1 25.5539 28.1C28.0439 28.1 29.7139 26.79 29.7139 24.5C29.7139 22.21 28.0439 20.9 25.5539 20.9C23.0639 20.9 21.3939 22.21 21.3939 24.5ZM25.5539 22.17C27.1639 22.17 28.3039 22.98 28.3039 24.5C28.3039 26.02 27.1639 26.83 25.5539 26.83C23.9439 26.83 22.8039 26.02 22.8039 24.5C22.8039 22.98 23.9439 22.17 25.5539 22.17ZM38.1955 22.41C37.4955 21.43 36.2455 20.9 34.6555 20.9C32.1655 20.9 30.4955 22.21 30.4955 24.5C30.4955 26.79 32.1655 28.1 34.6555 28.1C36.2555 28.1 37.5155 27.54 38.2155 26.54L37.0755 25.74C36.6255 26.45 35.7455 26.83 34.6555 26.83C33.0455 26.83 31.9055 26.02 31.9055 24.5C31.9055 22.98 33.0455 22.17 34.6555 22.17C35.7255 22.17 36.5855 22.53 37.0455 23.22L38.1955 22.41Z" fill="white"/>
</svg>
