<svg width="50" height="50" viewBox="0 0 50 50" fill="none" xmlns="http://www.w3.org/2000/svg">
<path fill-rule="evenodd" clip-rule="evenodd" d="M30.5 4H12C10.8954 4 10 4.89543 10 6V43C10 44.1046 10.8954 45 12 45H39C40.1046 45 41 44.1046 41 43V12.9995L30.5 4Z" fill="#11740F"/>
<path d="M30.2991 14.3376C29.6448 14.4194 29.0919 13.8567 29.1851 13.2039L30.5001 3.99835L41 13L30.2991 14.3376Z" fill="#0A4A09"/>
<path d="M24.168 23H26.048L22.208 19.05L25.168 16H23.328L21.288 18.1L19.248 16H17.368L20.348 19.07L16.518 23H18.358L21.268 20.01L24.168 23ZM26.9103 23H32.9603V21.72H28.2903V16H26.9103V23ZM24.2533 27.46C23.5533 26.48 21.9533 25.89 20.2433 25.89C18.3533 25.89 16.8933 26.76 16.8933 28.04C16.8933 29.15 17.8533 29.79 20.3633 29.97C22.0133 30.09 22.8533 30.3 22.8533 30.86C22.8533 31.59 21.7533 31.84 20.6233 31.84C19.2933 31.84 18.1333 31.29 17.6033 30.53L16.4633 31.33C17.1633 32.33 18.6633 33.11 20.5433 33.11C22.3633 33.11 24.2433 32.47 24.2433 30.83C24.2433 29.46 22.9333 28.9 20.7133 28.74C18.7133 28.6 18.3233 28.41 18.3233 27.98C18.3233 27.47 19.1733 27.16 20.2533 27.16C21.4333 27.16 22.6433 27.58 23.1033 28.27L24.2533 27.46ZM32.2345 33H34.1145L30.2745 29.05L33.2345 26H31.3945L29.3545 28.1L27.3145 26H25.4345L28.4145 29.07L24.5845 33H26.4245L29.3345 30.01L32.2345 33Z" fill="white"/>
</svg>
